<svg height="640" viewBox="0 -88 480 480" width="640" xmlns="http://www.w3.org/2000/svg"><path d="M136 208H80V88a8 8 0 0 0-16 0v128a8 8 0 0 0 8 8h64a8 8 0 0 0 0-16zM408 96a8 8 0 0 0 0-16h-64a8 8 0 0 0-8 8v128a8 8 0 0 0 8 8h64a8 8 0 0 0 0-16h-56v-48h40a8 8 0 0 0 0-16h-40V96zM176 80a8 8 0 0 0-8 8v128a8 8 0 0 0 16 0V88a8 8 0 0 0-8-8zm130.809.504a8.005 8.005 0 0 0-6.125.207 7.993 7.993 0 0 0-4.18 4.48l-39.816 106.192L223.64 85.602a8.007 8.007 0 0 0-10.04-5.243 8.007 8.007 0 0 0-5.242 10.04l40 128a8.001 8.001 0 0 0 7.418 5.601H256a7.998 7.998 0 0 0 7.496-5.191l48-128a8.005 8.005 0 0 0-.207-6.125 7.993 7.993 0 0 0-4.48-4.18zm0 0"/><path d="M440 0H40C17.918.027.027 17.918 0 40v224c.027 22.082 17.918 39.973 40 40h400c22.082-.027 39.973-17.918 40-40V40c-.027-22.082-17.918-39.973-40-40zm24 264c0 13.254-10.746 24-24 24H40c-13.254 0-24-10.746-24-24V40c0-13.254 10.746-24 24-24h400c13.254 0 24 10.746 24 24zm0 0"/></svg>