<svg xmlns="http://www.w3.org/2000/svg" xmlns:xlink="http://www.w3.org/1999/xlink" style="display:none"><symbol id="icon-email" viewBox="0 0 512 512">
<g>
	<g>
		<g>
			<path d="M486.4,59.733H25.6c-14.138,0-25.6,11.461-25.6,25.6v341.333c0,14.138,11.461,25.6,25.6,25.6h460.8
				c14.138,0,25.6-11.461,25.6-25.6V85.333C512,71.195,500.539,59.733,486.4,59.733z M494.933,426.667
				c0,4.713-3.82,8.533-8.533,8.533H25.6c-4.713,0-8.533-3.82-8.533-8.533V85.333c0-4.713,3.82-8.533,8.533-8.533h460.8
				c4.713,0,8.533,3.82,8.533,8.533V426.667z"/>
			<path d="M470.076,93.898c-2.255-0.197-4.496,0.51-6.229,1.966L266.982,261.239c-6.349,5.337-15.616,5.337-21.965,0L48.154,95.863
				c-2.335-1.96-5.539-2.526-8.404-1.484c-2.865,1.042-4.957,3.534-5.487,6.537s0.582,6.06,2.917,8.02l196.864,165.367
				c12.688,10.683,31.224,10.683,43.913,0L474.82,108.937c1.734-1.455,2.818-3.539,3.015-5.794c0.197-2.255-0.51-4.496-1.966-6.229
				C474.415,95.179,472.331,94.095,470.076,93.898z"/>
			<path d="M164.124,273.13c-3.021-0.674-6.169,0.34-8.229,2.65l-119.467,128c-2.162,2.214-2.956,5.426-2.074,8.392
				c0.882,2.967,3.301,5.223,6.321,5.897c3.021,0.674,6.169-0.34,8.229-2.65l119.467-128c2.162-2.214,2.956-5.426,2.074-8.392
				C169.563,276.061,167.145,273.804,164.124,273.13z"/>
			<path d="M356.105,275.78c-2.059-2.31-5.208-3.324-8.229-2.65c-3.021,0.674-5.439,2.931-6.321,5.897
				c-0.882,2.967-0.088,6.178,2.074,8.392l119.467,128c3.24,3.318,8.536,3.442,11.927,0.278c3.391-3.164,3.635-8.456,0.549-11.918
				L356.105,275.78z"/>
		</g>
	</g>
</g>
<g>
</g>
<g>
</g>
<g>
</g>
<g>
</g>
<g>
</g>
<g>
</g>
<g>
</g>
<g>
</g>
<g>
</g>
<g>
</g>
<g>
</g>
<g>
</g>
<g>
</g>
<g>
</g>
<g>
</g>
</symbol><symbol id="icon-live" viewBox="0 -88 480 480"><path d="m136 208h-56v-120c0-4.417969-3.582031-8-8-8s-8 3.582031-8 8v128c0 4.417969 3.582031 8 8 8h64c4.417969 0 8-3.582031 8-8s-3.582031-8-8-8zm0 0"/><path d="m408 96c4.417969 0 8-3.582031 8-8s-3.582031-8-8-8h-64c-4.417969 0-8 3.582031-8 8v128c0 4.417969 3.582031 8 8 8h64c4.417969 0 8-3.582031 8-8s-3.582031-8-8-8h-56v-48h40c4.417969 0 8-3.582031 8-8s-3.582031-8-8-8h-40v-48zm0 0"/><path d="m176 80c-4.417969 0-8 3.582031-8 8v128c0 4.417969 3.582031 8 8 8s8-3.582031 8-8v-128c0-4.417969-3.582031-8-8-8zm0 0"/><path d="m306.808594 80.503906c-1.988282-.746094-4.191406-.671875-6.125.207032-1.933594.878906-3.4375 2.492187-4.179688 4.480468l-39.816406 106.191406-33.046875-105.78125c-1.324219-4.222656-5.820313-6.566406-10.039063-5.242187-4.222656 1.324219-6.566406 5.820313-5.242187 10.039063l40 128c1.023437 3.261718 4.003906 5.507812 7.417969 5.601562h.222656c3.335938.003906 6.324219-2.066406 7.496094-5.191406l48-128c.746094-1.988282.671875-4.191406-.207032-6.125-.878906-1.933594-2.492187-3.4375-4.480468-4.179688zm0 0"/><path d="m440 0h-400c-22.082031.0273438-39.9726562 17.917969-40 40v224c.0273438 22.082031 17.917969 39.972656 40 40h400c22.082031-.027344 39.972656-17.917969 40-40v-224c-.027344-22.082031-17.917969-39.9726562-40-40zm24 264c0 13.253906-10.746094 24-24 24h-400c-13.253906 0-24-10.746094-24-24v-224c0-13.253906 10.746094-24 24-24h400c13.253906 0 24 10.746094 24 24zm0 0"/></symbol><symbol id="icon-vk" viewBox="0 0 548.358 548.358">
<g>
	<path d="M545.451,400.298c-0.664-1.431-1.283-2.618-1.858-3.569c-9.514-17.135-27.695-38.167-54.532-63.102l-0.567-0.571
		l-0.284-0.28l-0.287-0.287h-0.288c-12.18-11.611-19.893-19.418-23.123-23.415c-5.91-7.614-7.234-15.321-4.004-23.13
		c2.282-5.9,10.854-18.36,25.696-37.397c7.807-10.089,13.99-18.175,18.556-24.267c32.931-43.78,47.208-71.756,42.828-83.939
		l-1.701-2.847c-1.143-1.714-4.093-3.282-8.846-4.712c-4.764-1.427-10.853-1.663-18.278-0.712l-82.224,0.568
		c-1.332-0.472-3.234-0.428-5.712,0.144c-2.475,0.572-3.713,0.859-3.713,0.859l-1.431,0.715l-1.136,0.859
		c-0.952,0.568-1.999,1.567-3.142,2.995c-1.137,1.423-2.088,3.093-2.848,4.996c-8.952,23.031-19.13,44.444-30.553,64.238
		c-7.043,11.803-13.511,22.032-19.418,30.693c-5.899,8.658-10.848,15.037-14.842,19.126c-4,4.093-7.61,7.372-10.852,9.849
		c-3.237,2.478-5.708,3.525-7.419,3.142c-1.715-0.383-3.33-0.763-4.859-1.143c-2.663-1.714-4.805-4.045-6.42-6.995
		c-1.622-2.95-2.714-6.663-3.285-11.136c-0.568-4.476-0.904-8.326-1-11.563c-0.089-3.233-0.048-7.806,0.145-13.706
		c0.198-5.903,0.287-9.897,0.287-11.991c0-7.234,0.141-15.085,0.424-23.555c0.288-8.47,0.521-15.181,0.716-20.125
		c0.194-4.949,0.284-10.185,0.284-15.705s-0.336-9.849-1-12.991c-0.656-3.138-1.663-6.184-2.99-9.137
		c-1.335-2.95-3.289-5.232-5.853-6.852c-2.569-1.618-5.763-2.902-9.564-3.856c-10.089-2.283-22.936-3.518-38.547-3.71
		c-35.401-0.38-58.148,1.906-68.236,6.855c-3.997,2.091-7.614,4.948-10.848,8.562c-3.427,4.189-3.905,6.475-1.431,6.851
		c11.422,1.711,19.508,5.804,24.267,12.275l1.715,3.429c1.334,2.474,2.666,6.854,3.999,13.134c1.331,6.28,2.19,13.227,2.568,20.837
		c0.95,13.897,0.95,25.793,0,35.689c-0.953,9.9-1.853,17.607-2.712,23.127c-0.859,5.52-2.143,9.993-3.855,13.418
		c-1.715,3.426-2.856,5.52-3.428,6.28c-0.571,0.76-1.047,1.239-1.425,1.427c-2.474,0.948-5.047,1.431-7.71,1.431
		c-2.667,0-5.901-1.334-9.707-4c-3.805-2.666-7.754-6.328-11.847-10.992c-4.093-4.665-8.709-11.184-13.85-19.558
		c-5.137-8.374-10.467-18.271-15.987-29.691l-4.567-8.282c-2.855-5.328-6.755-13.086-11.704-23.267
		c-4.952-10.185-9.329-20.037-13.134-29.554c-1.521-3.997-3.806-7.04-6.851-9.134l-1.429-0.859c-0.95-0.76-2.475-1.567-4.567-2.427
		c-2.095-0.859-4.281-1.475-6.567-1.854l-78.229,0.568c-7.994,0-13.418,1.811-16.274,5.428l-1.143,1.711
		C0.288,140.146,0,141.668,0,143.763c0,2.094,0.571,4.664,1.714,7.707c11.42,26.84,23.839,52.725,37.257,77.659
		c13.418,24.934,25.078,45.019,34.973,60.237c9.897,15.229,19.985,29.602,30.264,43.112c10.279,13.515,17.083,22.176,20.412,25.981
		c3.333,3.812,5.951,6.662,7.854,8.565l7.139,6.851c4.568,4.569,11.276,10.041,20.127,16.416
		c8.853,6.379,18.654,12.659,29.408,18.85c10.756,6.181,23.269,11.225,37.546,15.126c14.275,3.905,28.169,5.472,41.684,4.716h32.834
		c6.659-0.575,11.704-2.669,15.133-6.283l1.136-1.431c0.764-1.136,1.479-2.901,2.139-5.276c0.668-2.379,1-5,1-7.851
		c-0.195-8.183,0.428-15.558,1.852-22.124c1.423-6.564,3.045-11.513,4.859-14.846c1.813-3.33,3.859-6.14,6.136-8.418
		c2.282-2.283,3.908-3.666,4.862-4.142c0.948-0.479,1.705-0.804,2.276-0.999c4.568-1.522,9.944-0.048,16.136,4.429
		c6.187,4.473,11.99,9.996,17.418,16.56c5.425,6.57,11.943,13.941,19.555,22.124c7.617,8.186,14.277,14.271,19.985,18.274
		l5.708,3.426c3.812,2.286,8.761,4.38,14.853,6.283c6.081,1.902,11.409,2.378,15.984,1.427l73.087-1.14
		c7.229,0,12.854-1.197,16.844-3.572c3.998-2.379,6.373-5,7.139-7.851c0.764-2.854,0.805-6.092,0.145-9.712
		C546.782,404.25,546.115,401.725,545.451,400.298z"/>
</g>
<g>
</g>
<g>
</g>
<g>
</g>
<g>
</g>
<g>
</g>
<g>
</g>
<g>
</g>
<g>
</g>
<g>
</g>
<g>
</g>
<g>
</g>
<g>
</g>
<g>
</g>
<g>
</g>
<g>
</g>
</symbol></svg>